/* XPM */
static const char *_[] = {
/* columns rows colors chars-per-pixel */
"25 25 2 1 ",
"  c #000000",
". c None",
/* pixels */
".........................",
"...........  ............",
"........        .........",
"......            .......",
"....                .....",
"...                  ....",
"..                    ...",
".                     ...",
".        ......        ..",
".       ......         ..",
"       ......   .       .",
"       ....    ...      .",
"       ...    ....      .",
"       ..    .....      .",
"       .   ......       .",
".         .......      ..",
".        ......        ..",
".                     ...",
"..                    ...",
"...                  ....",
"....                .....",
"......            .......",
"........        .........",
"...........  ............",
"........................."
};
