/* XPM */
static const char *aim[] = {
/* columns rows colors chars-per-pixel */
"24 25 2 1 ",
"  c #BD0000",
". c #000000",
/* pixels */
"..........    ..........",
"..........    ..........",
"..........    ..........",
"..........    ..........",
"..........    ..........",
"..........    ..........",
"..........    ..........",
"..........    ..........",
"........................",
"........................",
"........................",
"        ........        ",
"        ........        ",
"        ........        ",
"........................",
"........................",
"..........    ..........",
"..........    ..........",
"..........    ..........",
"..........    ..........",
"..........    ..........",
"..........    ..........",
"..........    ..........",
"..........    ..........",
"..........    .........."
};
