/* XPM */
static char * button_xpm[] = {
"100 50 86 1",
" 	c #741212",
".	c #6C1111",
"+	c #120606",
"@	c #150606",
"#	c #2B0707",
"$	c #410A0A",
"%	c #651010",
"&	c #600F0F",
"*	c #520C0C",
"=	c #4A0B0B",
"-	c #661010",
";	c #711111",
">	c #470B0B",
",	c #610F0F",
"'	c #420A0A",
")	c #270606",
"!	c #180606",
"~	c #280606",
"{	c #440A0A",
"]	c #620F0F",
"^	c #480B0B",
"/	c #570D0D",
"(	c #5B0D0D",
"_	c #721212",
":	c #731212",
"<	c #130606",
"[	c #6A1010",
"}	c #3F0909",
"|	c #6E1111",
"1	c #510C0C",
"2	c #270808",
"3	c #3E0A0A",
"4	c #220707",
"5	c #590E0E",
"6	c #580E0E",
"7	c #1F0707",
"8	c #4F0B0B",
"9	c #2E0808",
"0	c #430A0A",
"a	c #2F0808",
"b	c #701111",
"c	c #681010",
"d	c #1C0606",
"e	c #691010",
"f	c #6B1010",
"g	c #450A0A",
"h	c #670F0F",
"i	c #4E0C0C",
"j	c #4E0B0B",
"k	c #3E0909",
"l	c #370909",
"m	c #3D0A0A",
"n	c #170606",
"o	c #4B0B0B",
"p	c #290707",
"q	c #6D1111",
"r	c #310808",
"s	c #190606",
"t	c #390909",
"u	c #630F0F",
"v	c #2B0808",
"w	c #160606",
"x	c #6F1111",
"y	c #1E0707",
"z	c #340808",
"A	c #5D0E0E",
"B	c #500B0B",
"C	c #460B0B",
"D	c #3C0A0A",
"E	c #4D0C0C",
"F	c #5E0E0E",
"G	c #230707",
"H	c #200707",
"I	c #1D0606",
"J	c #560D0D",
"K	c #380909",
"L	c #360909",
"M	c #490B0B",
"N	c #300808",
"O	c #721111",
"P	c #330808",
"Q	c #6F1212",
"R	c #320808",
"S	c #350808",
"T	c #540D0D",
"U	c #5A0E0E",
"                                                                                                    ",
"                                                                                                    ",
"                                                                                                    ",
"                                                                                                    ",
"                                                                                                    ",
"                                                                                                    ",
"                                                                                                    ",
"                                                                                                    ",
"                                                                                                    ",
"                                                                                                    ",
"                                                                                                    ",
"                                                                                                    ",
"                                                                                                    ",
"                                                                                                    ",
"                                                                                                    ",
"                                                                                                    ",
"                                                                                                    ",
"                                                                                                    ",
"           .++++@#$%    &+*      =+-;++++++++++++++++++++++>    ,')!~{]     .++^     /+&            ",
"           .++++++++(   &+*      =+-;++++++++++++++++++++++>  _{+++++++^:   .++<[    /+&            ",
"           .+}  :|1+2   &+*      =+-     .+3        .+3       =+45|:|67+8   .+9+0    /+&            ",
"           .+}     a+b  &+*      =+-     .+3        .+3      c+de     c!<f  .+{g+h   /+&            ",
"           .+}     a@:  &+*      =+-     .+3        .+3      i+*       j+*  .+{f@k   /+&            ",
"           .+}   |*+{   &+*      =+-     .+3        .+3      l+c       %+m  .+{ =+%  /+&            ",
"           .++++++no;   &+*      =+-     .+3        .+3      p+b       q+r  .+{ qst  /+&            ",
"           .+++++++au   &+*      =+-     .+3        .+3      p+b       q+r  .+{  j+, /+&            ",
"           .+}   buvw[  ,+1      ^+h     .+3        .+3      l+c       %+m  .+{  xyz /+&            ",
"           .+}     A+B  -+C      D+.     .+3        .+3      E+*       j+*  .+{   *+F/+&            ",
"           .+}     A+^  b@G;    |nH:     .+3        .+3      c+Ie     cs<f  .+{   b49J+&            ",
"           .+}   bu#+J   {+K-;_-L+j      .+3        .+3       M+45|:|6H+j   .+{    J+a+&            ",
"           .++++++++Nb   |v++++++z;      .+3        .+3       O{+++++++^:   .+{    O)++&            ",
"           .+++++dP*b     Q1RdIST;       .+3        .+3         ,$2!)0]     .+{     U++&            ",
"                                                                                                    ",
"                                                                                                    ",
"                                                                                                    ",
"                                                                                                    ",
"                                                                                                    ",
"                                                                                                    ",
"                                                                                                    ",
"                                                                                                    ",
"                                                                                                    ",
"                                                                                                    ",
"                                                                                                    ",
"                                                                                                    ",
"                                                                                                    ",
"                                                                                                    ",
"                                                                                                    ",
"                                                                                                    ",
"                                                                                                    ",
"                                                                                                    "};
