/* XPM */
static char * east_xpm[] = {
"125 125 7 1",
" 	c #507B85",
".	c #324A50",
"+	c #120606",
"@	c #4F7983",
"#	c #2A3E43",
"$	c #140D0E",
"%	c #476D76",
"                                                                                                                             ",
"                                                                                                                             ",
"                                                                                                                             ",
"                                                                                                                             ",
"                                                                                                                             ",
"                                                                                                                             ",
"                                                                                                                             ",
"                                                                                                                             ",
"                                                                                                                             ",
"                                                                                                                             ",
"                                                                                                                             ",
"                                                                                                                             ",
"                                                                                                                             ",
"                                                                                                                             ",
"                                                                                                                             ",
"                              .++++++++++++++++++++++++++++++++++++++++++++++++++++++++++++++@                               ",
"                              .++++++++++++++++++++++++++++++++++++++++++++++++++++++++++++++@                               ",
"                              .++++++++++++++++++++++++++++++++++++++++++++++++++++++++++++++@                               ",
"                              .++++++++++++++++++++++++++++++++++++++++++++++++++++++++++++++@                               ",
"                              .++++++++++++++++++++++++++++++++++++++++++++++++++++++++++++++@                               ",
"                              .++++++++++++++++++++++++++++++++++++++++++++++++++++++++++++++@                               ",
"                              .++++++++++++++++++++++++++++++++++++++++++++++++++++++++++++++@                               ",
"                              .++++++++++++++++++++++++++++++++++++++++++++++++++++++++++++++@                               ",
"                              .++++++++++++++++++++++++++++++++++++++++++++++++++++++++++++++@                               ",
"                              .++++++++++++++++++++++++++++++++++++++++++++++++++++++++++++++@                               ",
"                              .++++++++++++++++++++++++++++++++++++++++++++++++++++++++++++++@                               ",
"                              .++++++++++++#                                                                                 ",
"                              .++++++++++++#                                                                                 ",
"                              .++++++++++++#                                                                                 ",
"                              .++++++++++++#                                                                                 ",
"                              .++++++++++++#                                                                                 ",
"                              .++++++++++++#                                                                                 ",
"                              .++++++++++++#                                                                                 ",
"                              .++++++++++++#                                                                                 ",
"                              .++++++++++++#                                                                                 ",
"                              .++++++++++++#                                                                                 ",
"                              .++++++++++++#                                                                                 ",
"                              .++++++++++++#                                                                                 ",
"                              .++++++++++++#                                                                                 ",
"                              .++++++++++++#                                                                                 ",
"                              .++++++++++++#                                                                                 ",
"                              .++++++++++++#                                                                                 ",
"                              .++++++++++++#                                                                                 ",
"                              .++++++++++++#                                                                                 ",
"                              .++++++++++++#                                                                                 ",
"                              .++++++++++++#                                                                                 ",
"                              .++++++++++++#                                                                                 ",
"                              .++++++++++++#                                                                                 ",
"                              .++++++++++++#                                                                                 ",
"                              .++++++++++++#                                                                                 ",
"                              .++++++++++++#                                                                                 ",
"                              .++++++++++++#                                                                                 ",
"                              .++++++++++++#                                                                                 ",
"                              .++++++++++++#                                                                                 ",
"                              .++++++++++++#                                                                                 ",
"                              .+++++++++++++++++++++++++++++++++++++++++++++++++++++++++++$                                  ",
"                              .+++++++++++++++++++++++++++++++++++++++++++++++++++++++++++$                                  ",
"                              .+++++++++++++++++++++++++++++++++++++++++++++++++++++++++++$                                  ",
"                              .+++++++++++++++++++++++++++++++++++++++++++++++++++++++++++$                                  ",
"                              .+++++++++++++++++++++++++++++++++++++++++++++++++++++++++++$                                  ",
"                              .+++++++++++++++++++++++++++++++++++++++++++++++++++++++++++$                                  ",
"                              .+++++++++++++++++++++++++++++++++++++++++++++++++++++++++++$                                  ",
"                              .+++++++++++++++++++++++++++++++++++++++++++++++++++++++++++$                                  ",
"                              .+++++++++++++++++++++++++++++++++++++++++++++++++++++++++++$                                  ",
"                              .+++++++++++++++++++++++++++++++++++++++++++++++++++++++++++$                                  ",
"                              .+++++++++++++++++++++++++++++++++++++++++++++++++++++++++++$                                  ",
"                              .++++++++++++#                                                                                 ",
"                              .++++++++++++#                                                                                 ",
"                              .++++++++++++#                                                                                 ",
"                              .++++++++++++#                                                                                 ",
"                              .++++++++++++#                                                                                 ",
"                              .++++++++++++#                                                                                 ",
"                              .++++++++++++#                                                                                 ",
"                              .++++++++++++#                                                                                 ",
"                              .++++++++++++#                                                                                 ",
"                              .++++++++++++#                                                                                 ",
"                              .++++++++++++#                                                                                 ",
"                              .++++++++++++#                                                                                 ",
"                              .++++++++++++#                                                                                 ",
"                              .++++++++++++#                                                                                 ",
"                              .++++++++++++#                                                                                 ",
"                              .++++++++++++#                                                                                 ",
"                              .++++++++++++#                                                                                 ",
"                              .++++++++++++#                                                                                 ",
"                              .++++++++++++#                                                                                 ",
"                              .++++++++++++#                                                                                 ",
"                              .++++++++++++#                                                                                 ",
"                              .++++++++++++#                                                                                 ",
"                              .++++++++++++#                                                                                 ",
"                              .++++++++++++#                                                                                 ",
"                              .++++++++++++#                                                                                 ",
"                              .++++++++++++#                                                                                 ",
"                              .++++++++++++#                                                                                 ",
"                              .++++++++++++#                                                                                 ",
"                              .++++++++++++#                                                                                 ",
"                              .++++++++++++#                                                                                 ",
"                              .++++++++++++#                                                                                 ",
"                              .++++++++++++#                                                                                 ",
"                              .++++++++++++#                                                                                 ",
"                              .++++++++++++#                                                                                 ",
"                              .++++++++++++#                                                                                 ",
"                              .++++++++++++#                                                                                 ",
"                              .++++++++++++#                                                                                 ",
"                              .+++++++++++++++++++++++++++++++++++++++++++++++++++++++++++++++%                              ",
"                              .+++++++++++++++++++++++++++++++++++++++++++++++++++++++++++++++%                              ",
"                              .+++++++++++++++++++++++++++++++++++++++++++++++++++++++++++++++%                              ",
"                              .+++++++++++++++++++++++++++++++++++++++++++++++++++++++++++++++%                              ",
"                              .+++++++++++++++++++++++++++++++++++++++++++++++++++++++++++++++%                              ",
"                              .+++++++++++++++++++++++++++++++++++++++++++++++++++++++++++++++%                              ",
"                              .+++++++++++++++++++++++++++++++++++++++++++++++++++++++++++++++%                              ",
"                              .+++++++++++++++++++++++++++++++++++++++++++++++++++++++++++++++%                              ",
"                              .+++++++++++++++++++++++++++++++++++++++++++++++++++++++++++++++%                              ",
"                              .+++++++++++++++++++++++++++++++++++++++++++++++++++++++++++++++%                              ",
"                                                                                                                             ",
"                                                                                                                             ",
"                                                                                                                             ",
"                                                                                                                             ",
"                                                                                                                             ",
"                                                                                                                             ",
"                                                                                                                             ",
"                                                                                                                             ",
"                                                                                                                             ",
"                                                                                                                             ",
"                                                                                                                             ",
"                                                                                                                             "};
