/* XPM */
static const char *K[] = {
/* columns rows colors chars-per-pixel */
"25 25 2 1 ",
"  c black",
". c None",
/* pixels */
".........................",
".        .....         ..",
".       ......        ...",
"..      .....        ....",
"..      ....        .....",
"..      ....       ......",
"..      ...       .......",
"..      ..        .......",
"..      .        ........",
"..              .........",
"..             ..........",
"..            ...........",
"..            ...........",
"..             ..........",
"..             ..........",
"..              .........",
"..      .        ........",
"..      ..        .......",
"..      ...        ......",
"..      ....       ......",
"..      .....       .....",
"..      .....        ....",
".       ......        ...",
".        .....         ..",
"........................."
};
