/* XPM */
static const char *N[] = {
/* columns rows colors chars-per-pixel */
"25 25 2 1 ",
"  c black",
". c None",
/* pixels */
".........................",
"..       .....        ...",
"..       ......       ...",
"..       ......       ...",
"..       ......       ...",
"..        .....       ...",
"..         ....       ...",
"..         ....       ...",
"..          ...       ...",
"..           ..       ...",
"..            .       ...",
"..                    ...",
"..                    ...",
"..                    ...",
"..       .            ...",
"..       ..           ...",
"..       ..           ...",
"..       ...          ...",
"..       ....         ...",
"..       .....        ...",
"..       ......       ...",
"..       ......       ...",
"..       ......       ...",
"..       .....        ...",
"........................."
};
