/* XPM */
static const char *pointeur_final[] = {
/* columns rows colors chars-per-pixel */
"30 30 179 2 ",
"   c #1F1513",
".  c #271917",
"X  c #2C1C1B",
"o  c #391C17",
"O  c #331D1C",
"+  c #3C221D",
"@  c #2D2326",
"#  c #342423",
"$  c #3B2523",
"%  c #3C2925",
"&  c #35282A",
"*  c #3C2B2A",
"=  c #332B34",
"-  c #3D3134",
";  c #3B323C",
":  c #451D17",
">  c #521D1D",
",  c #4B241C",
"<  c #54271A",
"1  c #5C2B1C",
"2  c #662B1A",
"3  c #432422",
"4  c #492525",
"5  c #442A24",
"6  c #4C2B24",
"7  c #432C2B",
"8  c #4B2C2B",
"9  c #532C24",
"0  c #572C27",
"q  c #46312B",
"w  c #4C322C",
"e  c #5C3224",
"r  c #573428",
"t  c #54332C",
"y  c #5B342B",
"u  c #492D32",
"i  c #483435",
"p  c #573736",
"a  c #652C24",
"s  c #742D25",
"d  c #633325",
"f  c #6A3526",
"g  c #63352B",
"h  c #643A2C",
"j  c #6B3B2C",
"k  c #773625",
"l  c #733C2C",
"z  c #633C33",
"x  c #653937",
"c  c #6C3D33",
"v  c #763C33",
"b  c #68443A",
"n  c #734334",
"m  c #7C4434",
"M  c #744B36",
"N  c #7C4B3C",
"B  c #3E3641",
"V  c #423944",
"C  c #6B4843",
"Z  c #785650",
"A  c #863A29",
"S  c #943A2C",
"D  c #883C35",
"F  c #87432C",
"G  c #96472D",
"H  c #844433",
"J  c #8B4434",
"K  c #834936",
"L  c #8B4B34",
"P  c #974A36",
"I  c #934C3B",
"U  c #86523B",
"Y  c #8B523C",
"T  c #9B543C",
"R  c #A64B36",
"E  c #A3543C",
"W  c #A9563A",
"Q  c #B5583A",
"!  c #B6623D",
"~  c #964C45",
"^  c #8C5343",
"/  c #885747",
"(  c #945443",
")  c #9B5443",
"_  c #9C5B44",
"`  c #98544B",
"'  c #945C4B",
"]  c #9C5C4B",
"[  c #A35C44",
"{  c #AB5B44",
"}  c #A35D4B",
"|  c #B35C43",
" . c #A65B50",
".. c #996348",
"X. c #9C634C",
"o. c #9C6452",
"O. c #946A54",
"+. c #986857",
"@. c #A4634B",
"#. c #AB644B",
"$. c #BB6544",
"%. c #B36A4D",
"&. c #BB6B4C",
"*. c #AC704E",
"=. c #BA734D",
"-. c #A36452",
";. c #AC6553",
":. c #A46B54",
">. c #AB6B53",
",. c #A86B5A",
"<. c #B46C53",
"1. c #B76855",
"2. c #BB6C54",
"3. c #B46D5B",
"4. c #A97358",
"5. c #AC735B",
"6. c #B47254",
"7. c #BB7354",
"8. c #B3745B",
"9. c #BC745B",
"0. c #BC7A5C",
"q. c #8F6D66",
"w. c #A97865",
"e. c #BC7562",
"r. c #B47B63",
"t. c #BC7C63",
"y. c #C35E43",
"u. c #C36949",
"i. c #C7724D",
"p. c #C56C55",
"a. c #C37354",
"s. c #C3745B",
"d. c #C37B5C",
"f. c #CB7B5C",
"g. c #D17152",
"h. c #D37B59",
"j. c #C47C63",
"k. c #C67966",
"l. c #CB7C63",
"z. c #D27B64",
"x. c #BA8468",
"c. c #B98874",
"v. c #C8835C",
"b. c #C48264",
"n. c #CB8364",
"m. c #C4846B",
"M. c #CB846B",
"N. c #C68B69",
"B. c #D48769",
"V. c #C68975",
"C. c #CC8C73",
"Z. c #D38C73",
"A. c #CC9373",
"S. c #D39374",
"D. c #DA9677",
"F. c #D3947A",
"G. c #D49B7B",
"H. c #DB9C7D",
"J. c #E49879",
"K. c #D8A271",
"L. c #D9A379",
"P. c #E5A779",
"I. c #C99984",
"U. c #D49C83",
"Y. c #D69886",
"T. c #CFA68C",
"R. c #DAA588",
"E. c #D8A994",
"W. c #DBB598",
"Q. c #E5A889",
"!. c #E7B28A",
"~. c #E6AB94",
"^. c #F2AE92",
"/. c #E8B598",
"(. c #F3B899",
"). c #F4BBA3",
"_. c #E9C4A7",
"`. c #F8D0B2",
"'. c #000000",
/* pixels */
"q.C '.'.'.'.'.'.'.'.'.'.'.'.'.'.'.'.'.'.'.'.'.'.'.'.'.'.'.'.",
"w.+.  '.'.'.'.'.'.'.'.'.'.'.'.'.'.'.'.'.'.'.'.'.'.'.'.'.'.'.",
"e U.3 # '.'.'.'.'.'.'.'.'.'.'.'.'.'.'.'.'.'.'.'.'.'.'.'.'.'.",
"'.k 1 y '.'.'.'.'.'.'.'.'.'.'.'.'.'.'.'.'.'.'.'.'.'.'.'.'.'.",
"'./ 9.K 0 '.'.'.'.'.'.'.'.'.'.'.'.'.'.'.'.'.'.'.'.'.'.'.'.'.",
"'.'.;.3.>.9 '.'.'.'.'.'.'.9 ^ '.& . 9 X '.'.'.'.'.'.'.'.'.'.",
"'.'.'.1._ l < '.'.'.6 9 w O m z 8 : ` 5 q '.'.'.'.'.'.'.'.'.",
"'.'.'.y #.>._ 9 '.h e.-.r u p k 6 + K b - '.'.'.'.'.'.'.'.'.",
"'.'.'.'.8.%.6.@.9 # F <.-.c x #.] o > a O V '.'.'.'.'.'.'.'.",
"'.'.'.'.'., ^.S.E d R >.G.0.v b -.n N ~ O.$ = '.'.'.'.'.'.'.",
"'.'.'.'.'.'.+.f.j.;.V.>.j.m.r.8 o 4.u p n y @ = '.'.'.'.'.'.",
"'.'.'.'.'.'.'.x.W E 1 j p 9.r.q.b E.I./ + a * - '.'.'.'.'.'.",
"'.'.'.'.'.'.'.'.2.B.C.j.p H N _.r.+ 6 4 K e % X ; '.'.'.'.'.",
"'.'.'.'.'.'.'.'.W.i.9.L.T.M.s 2.Q.r x.g [ %.N . * B '.'.'.'.",
"'.'.'.'.'.'.'.'.'. .f.C.3.x.D.K 8.V.Z Y.+.c.X.7 . # '.'.'.'.",
"'.'.'.'.'.'.'.'.'.'.{ A.c.f.m.j.).) /.X.~ [ f z i * = '.'.'.",
"'.'.'.'.'.'.'.'.'.'.W l.M.R.J.F.,.Z.a.3.I...f @.b $ . ; '.'.",
"'.'.'.'.'.'.'.'.'.'.W j._.} z.2 N P E 9.<.o.%.} Y 4 % = '.'.",
"'.'.'.'.'.'.'.'.'.'.R u.~ D ( e ' l | K 9.e.=.6.t.( b $ & '.",
"'.'.'.'.'.'.'.'.'.'.R S $.F.`.A R f ~.k.Q.*.n.1.6.5.M $ @ '.",
"'.'.'.'.'.'.'.'.'.G y.s.S.m.I J L ~ (.~ (...7.~ >.c.n + '.'.",
"'.'.'.'.'.'.'.[ l.Q h.b.n.L.Q.T p.7.&.v.M.V.v.d 9.R...'.'.'.",
"'.'.'.'.'.( l.d.1.W M.J.&.a.g.! p.h.P.A.H.^.N.S.N.F./ '.'.'.",
"'.'.'.'.E ;.T 2.B.W g.$.s.'.'.'.'.'.K.K.D.b.<.!.C.C '.'.'.'.",
"'.'.'.E ;.P G _ '.'.'.'.'.'.'.'.'.'.'.'.N.9.U r '.'.'.'.'.'.",
"'.'.'.` c.k '.'.'.'.'.'.'.'.'.'.'.'.'.'.'.j 8 t '.'.'.'.'.'.",
"'.'.'.[ :.'.'.'.'.'.'.'.'.'.'.'.'.'.'.'.'.'.'.'.'.'.'.'.'.'.",
"'.'.'.'.'.'.'.'.'.'.'.'.'.'.'.'.'.'.'.'.'.'.'.'.'.'.'.'.'.'.",
"'.'.'.'.'.'.'.'.'.'.'.'.'.'.'.'.'.'.'.'.'.'.'.'.'.'.'.'.'.'.",
"'.'.'.'.'.'.'.'.'.'.'.'.'.'.'.'.'.'.'.'.'.'.'.'.'.'.'.'.'.'."
};