/* XPM */
static const char *R[] = {
/* columns rows colors chars-per-pixel */
"25 25 2 1 ",
"  c black",
". c None",
/* pixels */
".........................",
".........................",
"..            ...........",
"..                .......",
"..                 ......",
"..                  .....",
"..                   ....",
"..       ...          ...",
"..       .....        ...",
"..       .....        ...",
"..       .....        ...",
"..       ....         ...",
"..                   ....",
"..                   ....",
"..                  .....",
"..                .......",
"..                .......",
"..       ..       .......",
"..       ...       ......",
"..       ....      ......",
"..       ....       .....",
"..       .....       ....",
"..       .....       ....",
".        .....        ...",
"........................."
};
