/* XPM */
static const char *S[] = {
/* columns rows colors chars-per-pixel */
"25 25 2 1 ",
"  c black",
". c None",
/* pixels */
".........................",
"........         ........",
"....                  ...",
"...                   ...",
"..                    ...",
".                     ...",
".         ......      ...",
".        ..........   ...",
".        ............ ...",
".          ..............",
".              ..........",
"..                .......",
"...                 .....",
".....                ....",
"........              ...",
"............          ...",
". ............        ...",
".   ..........        ...",
".      ......         ...",
".                     ...",
".                    ....",
".                   .....",
".                  ......",
"......         ..........",
"........................."
};
