/* XPM */
static const char *shot[] = {
/* columns rows colors chars-per-pixel */
"40 40 29 1 ",
"  c #764135",
". c #9B3915",
"X c #B64416",
"o c #AA4C2C",
"O c #D04E13",
"+ c #F17211",
"@ c #DF611F",
"# c #A76B5E",
"$ c #CC7456",
"% c #F78D14",
"& c #F9AB19",
"* c #F8AF2A",
"= c #F5902C",
"- c #FACE2B",
"; c #FADF2D",
": c #CE8974",
"> c #F2A14C",
", c #FBE25A",
"< c #B6847A",
"1 c #B19591",
"2 c #D4B3AE",
"3 c #D09D92",
"4 c #E7CFB0",
"5 c #DCC7C6",
"6 c #E5D1D1",
"7 c #F4EFF1",
"8 c #EADFE1",
"9 c #000000",
"0 c #0086FF",
/* pixels */
"9999977999#9856212289199999997::97777721",
"9999995##9#378753#132125995621:365985689",
"9999925##956286597877999995618775267557#",
"999976677765353326652223319788683286587#",
"923988887753:$==$#$$$$:32185255878556519",
"92298868665$==%%+X@@O+=:5762325886322519",
"99999666682$+=%%%+@++%%$:33:333652258729",
"9997755685$@+@@%+%+%&&&@O$$$$:3232258779",
"87926233:$O@+++&%&++%%+X.o$$$$$2552651#9",
"568683$#ooXO@++&&&&++OOXXooooXo:$::28:##",
"856883#oXXXX@++&&+%%+OOO@O.X.XXOOo#3721#",
"755652$OOOXoO@%&&+%&+@+@+OOOOOO@@.o$6<##",
"65255:oXXXooO+&--&&%=*>+%%%+O+++O..o#5 9",
"55662$Xoooo.O+%%%&&*>,,-,--;&%%@XOO.o<2#",
"38872=@X@$oO++%&;;;*>,,,,,,,*%%@O+@..#5#",
"6885$@%=*@oO++-;,;-==>,,>,,>=+%%++%X.#29",
"6622:$+==@oO+&;;;***+++>>,,==++&&%%X.#71",
"52233$@=+oXO%-;;-&%*&@%=-,;++@@=*++o.171",
"622:$oO@@oO@%-;;-;--%O%%&,-+@X.O+OOo#678",
"552:oXO@@XO++-,,;;-&%O%%+*&%+@OXX..o3687",
"2223$O@@OXO+%-4,;;-%++%%+O++%+O.X..#3577",
"23:::O@@OO=&&,4,,,,-%%&&&+@@%%@...$::332",
"33$$>$@@O+---,4,>44,;;----++++O..$3:@$25",
"522223:@X@%&;,,>+=>=,,,;;;%&&@O.o:523355",
"832222:@@OO+-,,***=+&*-&&&&-&+OXo<322655",
"323522$OO@@+**=@==+++%&*--;;=@OX##<25665",
"32662:$$#oO@&++@@+&&+&,,,**&+OOo##356666",
"786653333oo@%=+++@%-;&*,,,-+OXo#<3288887",
"286865583$@+=%@OOO+%*%&**&%OOoo$28779769",
"866587778:@@++OXXXO++@+%%++%@o$355881#7:",
"655883585:@OOX...XO%++++OO@$$#$23688####",
"5763165#52$......XO%+OOOX.$$#3222267# #9",
"995##999822###..XXO++X...o$#:5687<289999",
"99699999777722#o...XOX..#122522588821#::",
"99999##9733997$#.   .X.#268772886929##:$",
"999999 :3$#2999<###o#o.#797991128##19999",
"9999999#<0919999533392#<999991169# 99199",
"9999999999999999953999992999999999899119",
"9999999999999999999999992999999995599199",
"9669999999999999999999999999999999999999"
};
