/* XPM */
static char *dummy[]={
"25 25 203 2",
"Qt c #000000",
"aJ c #3b2e20",
".2 c #3b2e20",
".i c #3b2e20",
"b# c #3d3020",
".q c #3e3121",
".# c #3c2f20",
"#p c #3c2f20",
"aY c #3c2f20",
"af c #362a1b",
"a7 c #3c2f20",
"aD c #3f3121",
".Q c #3d3021",
"#D c #46331e",
".C c #3d3021",
".h c #423322",
"aV c #3d3021",
"aX c #3f3222",
"#6 c #413423",
"au c #413323",
"ba c #5a4327",
"a0 c #413323",
"am c #423423",
"#7 c #5a4327",
".r c #423424",
"a6 c #433424",
"a1 c #443524",
".B c #483825",
".a c #564126",
"bb c #5a4327",
"bi c #493925",
".R c #483927",
"b. c #4d3c26",
"bc c #5a4327",
"aI c #4e3c27",
".g c #584127",
".j c #4d3c29",
"bh c #4e3d29",
"#i c #5a4327",
"bg c #533f27",
"aW c #53412d",
"a3 c #55422e",
".D c #55432e",
"#q c #5a4327",
"bd c #5a4327",
"bf c #574127",
"be c #594227",
"aO c #57452f",
"#E c #5a4327",
".b c #5a4327",
".p c #564129",
"aN c #594630",
".P c #57432a",
"aM c #5b4831",
".f c #5a4327",
"al c #382a19",
"aL c #5e4a33",
"#Y c #5a4327",
"aK c #614c34",
".c c #5a4327",
"#N c #5c4123",
".s c #644f36",
"#O c #5a4327",
"ae c #5b4326",
"#8 c #644e33",
"aZ c #685238",
"at c #3e2f1d",
"a8 c #5a4328",
"#C c #5d462a",
"#F c #654d32",
"#r c #6b5438",
"#j c #70583b",
"#h c #23180c",
"#b c #3e2e1a",
".d c #5a4327",
"a9 c #5a4428",
".1 c #5a442a",
".A c #5b4428",
"#X c #5c452a",
"#5 c #5d4427",
"#P c #5d462b",
"#Z c #5d472b",
".S c #6d563b",
"an c #6f573c",
"## c #20160a",
"aE c #21170a",
"aA c #21170b",
"#u c #23180c",
"aw c #241a0d",
"#S c #251a0c",
"#o c #251a0d",
"az c #261b0e",
"#z c #281c0e",
"ay c #281d0f",
"#T c #291d0f",
"aS c #2c2012",
"aF c #2d2011",
"#t c #2d2112",
"#a c #2f2212",
"as c #2f2213",
"#I c #312415",
"aB c #322413",
"ax c #322515",
"#g c #342616",
"#v c #362716",
"aQ c #382a19",
"#y c #3b2b18",
"aR c #3b2d1b",
"ap c #3d2e1c",
"aT c #3e2e1c",
"#A c #412f1b",
"#1 c #42311c",
"#H c #42321f",
"#n c #43321d",
"ab c #463522",
"#2 c #483723",
"aa c #49351f",
".Z c #4c3921",
"aG c #4e3a22",
"#4 c #4e3b23",
"#. c #4f3d27",
"a# c #553f25",
".0 c #574126",
"#W c #58442c",
".Y c #59442b",
"#3 c #59452e",
".e c #5a4327",
"aH c #5a4328",
".O c #5b4327",
".z c #5b4428",
"#M c #5c4428",
".N c #5c4529",
"aU c #5d4529",
".o c #5d462a",
"aC c #5e472a",
".X c #5f482b",
"a5 c #60482c",
"ak c #60492d",
"#L c #604a2e",
"av c #604a32",
"#x c #614a2f",
"aP c #624c33",
"ac c #644e35",
"a2 c #654e31",
"#K c #664e31",
".n c #664e32",
".m c #674f33",
"a. c #684d2f",
".y c #685033",
".W c #685034",
"#w c #685137",
".M c #695134",
".9 c #695135",
"a4 c #6a5135",
"#B c #6b5030",
"ar c #6b5439",
"#J c #6c5437",
".L c #6d5437",
"aq c #6e563a",
".x c #6f5639",
".8 c #6f563a",
"ad c #6f573a",
".l c #71593c",
".k c #71593d",
"#V c #72593c",
"#U c #725a3d",
".7 c #735a3d",
".3 c #735a3e",
".w c #745b3e",
".t c #755c3f",
"ag c #765c3f",
"#Q c #765d3f",
"ao c #775d3f",
".V c #795e40",
".6 c #7a5f40",
".E c #7b6040",
"#s c #7c603f",
".G c #7d6141",
".u c #7f6241",
"aj c #826442",
"#c c #846541",
".K c #846542",
".v c #876743",
"#G c #886843",
"#m c #896843",
"#d c #8a6943",
"#0 c #8a6944",
"#l c #8b6a44",
".4 c #8c6a44",
".U c #8c6b44",
"#9 c #8d6a42",
"#f c #8e6c45",
".H c #8f6c45",
"ai c #906c44",
".F c #906d45",
"#k c #916d45",
"#R c #916e45",
"#e c #926e45",
"ah c #936f45",
".J c #936f46",
".T c #946f46",
".5 c #947046",
".I c #957046",
"QtQtQtQtQtQtQt.#.a.b.c.d.e.f.g.hQtQtQtQtQtQtQtQtQt",
"QtQtQtQtQt.i.j.k.l.m.n.o.e.e.e.e.p.qQtQtQtQtQtQtQt",
"QtQtQtQt.r.s.t.t.t.u.v.w.x.y.z.e.e.A.BQtQtQtQtQtQt",
"QtQt.C.D.E.F.G.H.I.I.J.K.L.M.x.N.O.e.N.P.QQtQtQtQt",
"Qt.R.S.K.I.I.T.I.I.T.U.V.m.W.W.X.N.Y.Z.0.1QtQtQtQt",
".2.3.4.5.I.I.I.I.J.6.t.t.w.7.8.9#.#####a#bQtQtQtQt",
"Qt#c.T.I.I.I.I.5.T#d#e.I.5#f.4.M#g#######hQtQtQtQt",
"#i#j#k.5.I.I.5.5.I.I.5.J#l.J#m.x#n#######o#pQtQtQt",
"#q#r#e.I.5.T.I.I#e#s#t###u#v#w.w#x#y#z#A#B#C#DQtQt",
"#E#F#G.v.T.5.J.H#H###########I.w#J#K#L#M.e.e#NQtQt",
"#O#P.t#Q.G.I.T#R#S###########T#U.t#V#W#M.e.e#XQtQt",
"#Y#Z.t.t#0.I.J.I#1###########2.t#3###4.z.e#5#6QtQt",
"#7#8.t.t#l.4#l.5#9a.a#a#aaab.w.t.wacad.zaeafQtQtQt",
"Qt.s.t.t.tag#Q#R.J.Tahai#eaj.t.t.t.t.takalQtQtQtQt",
"Qtaman.t.t.t.tao#Qaoagapaq.t.t.t.t.taras##atauQtQt",
"QtQtaman.t.t.t.t.t.tavawaxay#3axaz####aAaB.eaCaDQt",
"QtQtQtaman.t.t.t.t.t.t#U.taAaE######aFaGaH.e.zaIaJ",
"QtQtQtQtamaKaLaMaNaO.t.t.taPaQaRaSaT.z.zaU.e.eakaV",
"QtQtQtQtQtQtQtQtQtQtaW.t.t.t.t.t.t.t.7.t.t.O.e.oaX",
"QtQtQtQtQtQtQtQtQtQtaYaZ.t.t.t.t.t.t.t.t.t.e.e.oa0",
"QtQtQtQtQtQtQtQtQtQtQta1.t.t.t.t.t.t.t.ta2.z.e.oa1",
"QtQtQtQtQtQtQtQtQtQtQtQta3.t.t.t.t.t.t.ta4.e.ea5a6",
"QtQtQtQtQtQtQtQtQtQtQtQta7a8a9.z.z.z.z.N.o.zb.b#Qt",
"QtQtQtQtQtQtQtQtQtQtQtQtQtbabbbcbdbebfbgbhbiQtQtQt",
"QtQtQtQtQtQtQtQtQtQtQtQtQtQtQtQtQtQtQtQtQtQtQtQtQt"};
