/* XPM */
static char *dummy[]={
"25 25 32 1",
". c #000000",
"B c #3b0202",
"u c #3b0202",
"c c #3a0202",
"w c #3a0202",
"# c #390202",
"C c #330202",
"e c #310202",
"D c #2e0202",
"p c #2d0202",
"j c #2d0202",
"y c #2c0202",
"a c #2c0202",
"d c #2c0303",
"b c #2b0303",
"k c #2d0303",
"f c #300303",
"A c #410303",
"q c #420303",
"t c #540202",
"r c #550202",
"z c #620202",
"g c #630202",
"x c #770202",
"o c #780202",
"l c #790202",
"h c #a00101",
"v c #c70101",
"i c #c80101",
"m c #ec0000",
"s c #ed0000",
"n c #ee0000",
".......#abbbbbbba#.......",
".....cdbbbbbbbbbbbdc.....",
"....ebbbbfghihgfbbbbe....",
"...jbbbklmnnnnnmokbbbp...",
"..ebbbqinnnnnnnnniqbbbe..",
".cbbbrsnnnnnnnnnnnstbbbu.",
".dbbqsnnnnnnnnnnnnnsqbbd.",
"#bbkinnnnnnnnnnnnnnnvkbbw",
"abbonnnnnnnnnnnnnnnnnxbby",
"bbfmnnnnnnnnnnnnnnnnnmfbb",
"bbgnnnnnnnnnnnnnnnnnnnzbb",
"bbhnnnnnnnnnnnnnnnnnnnhbb",
"bbinnnnnnnnnnnnnnnnnnnvbb",
"bbhnnnnnnnnnnnnnnnnnnnhbb",
"bbgnnnnnnnnnnnnnnnnnnnzbb",
"bbfmnnnnnnnnnnnnnnnnnmfbb",
"abbonnnnnnnnnnnnnnnnnxbby",
"#bbkinnnnnnnnnnnnnnnvkbbw",
".dbbqsnnnnnnnnnnnnnsAbbd.",
".cbbbtsnnnnnnnnnnnstbbbB.",
"..ebbbqvnnnnnnnnnvAbbbC..",
"...pbbbkomnnnnnmxkbbbD...",
"....ebbbbfzhvhzfbbbbC....",
".....cdbbbbbbbbbbbdB.....",
".......#ybbbbbbbyw......."};
