/* XPM */
static const char *X[] = {
/* columns rows colors chars-per-pixel */
"25 25 2 1 ",
"  c black",
". c None",
/* pixels */
".........................",
".         ....        ...",
"..        ....       ....",
"...       ....       ....",
"....       ..       .....",
"....       .       ......",
".....              ......",
".....             .......",
"......            .......",
".......          ........",
".......          ........",
"........        .........",
"........        .........",
"........        .........",
".......          ........",
".......          ........",
"......            .......",
".....             .......",
".....              ......",
"....       .       ......",
"....       ..       .....",
"...       ....       ....",
"..        ....       ....",
".         ....        ...",
"........................."
};
